<svg width="241" height="228" viewBox="0 0 241 228" fill="none" xmlns="http://www.w3.org/2000/svg">
<rect x="0.00390625" width="240.948" height="228" rx="10" fill="white"/>
<path d="M24.4146 20.7717H22.4224C22.3656 20.445 22.2608 20.1555 22.1081 19.9034C21.9554 19.6477 21.7654 19.4311 21.5382 19.2536C21.3109 19.076 21.0517 18.9428 20.7605 18.854C20.4728 18.7617 20.1621 18.7156 19.8283 18.7156C19.2353 18.7156 18.7097 18.8647 18.2516 19.163C17.7935 19.4577 17.4348 19.891 17.1756 20.4627C16.9164 21.0309 16.7868 21.7251 16.7868 22.5455C16.7868 23.38 16.9164 24.0831 17.1756 24.6548C17.4384 25.223 17.797 25.6527 18.2516 25.9439C18.7097 26.2315 19.2335 26.3754 19.823 26.3754C20.1497 26.3754 20.4551 26.3327 20.7392 26.2475C21.0268 26.1587 21.2843 26.0291 21.5115 25.8587C21.7424 25.6882 21.9359 25.4787 22.0921 25.2301C22.252 24.9815 22.362 24.6974 22.4224 24.3778L24.4146 24.3885C24.34 24.907 24.1784 25.3935 23.9299 25.848C23.6848 26.3026 23.3635 26.7038 22.9657 27.0518C22.568 27.3963 22.1028 27.6662 21.5701 27.8615C21.0375 28.0533 20.4462 28.1491 19.7963 28.1491C18.8375 28.1491 17.9817 27.9272 17.2289 27.4833C16.476 27.0394 15.883 26.3984 15.4497 25.5604C15.0165 24.7223 14.7999 23.7173 14.7999 22.5455C14.7999 21.37 15.0183 20.3651 15.4551 19.5305C15.8919 18.6925 16.4867 18.0515 17.2395 17.6076C17.9924 17.1637 18.8446 16.9418 19.7963 16.9418C20.4036 16.9418 20.9682 17.027 21.4902 17.1974C22.0122 17.3679 22.4774 17.6183 22.8858 17.9485C23.2942 18.2752 23.6298 18.6765 23.8926 19.1523C24.1589 19.6246 24.3329 20.1644 24.4146 20.7717ZM31.354 24.5589V19.8182H33.2822V28H31.4126V26.5458H31.3273C31.1427 27.0039 30.839 27.3786 30.4165 27.6697C29.9974 27.9609 29.4807 28.1065 28.8664 28.1065C28.3302 28.1065 27.8561 27.9876 27.4442 27.7496C27.0358 27.5082 26.7162 27.1584 26.4853 26.7003C26.2545 26.2386 26.1391 25.6811 26.1391 25.0277V19.8182H28.0674V24.7294C28.0674 25.2479 28.2094 25.6598 28.4935 25.9652C28.7776 26.2706 29.1505 26.4233 29.6121 26.4233C29.8962 26.4233 30.1714 26.354 30.4378 26.2156C30.7041 26.0771 30.9225 25.8711 31.0929 25.5977C31.267 25.3207 31.354 24.9744 31.354 24.5589ZM41.7317 21.9808L39.9739 22.1726C39.9242 21.995 39.8372 21.8281 39.7129 21.6719C39.5921 21.5156 39.4288 21.3896 39.2228 21.2937C39.0169 21.1978 38.7647 21.1499 38.4664 21.1499C38.0652 21.1499 37.7278 21.2369 37.4544 21.4109C37.1845 21.5849 37.0513 21.8104 37.0549 22.0874C37.0513 22.3253 37.1383 22.5188 37.3159 22.668C37.497 22.8171 37.7953 22.9396 38.2108 23.0355L39.6064 23.3338C40.3805 23.5007 40.9558 23.7653 41.3322 24.1275C41.7122 24.4897 41.9039 24.9638 41.9075 25.5497C41.9039 26.0646 41.753 26.5192 41.4547 26.9134C41.16 27.304 40.7498 27.6094 40.2243 27.8295C39.6987 28.0497 39.095 28.1598 38.4132 28.1598C37.4118 28.1598 36.6056 27.9503 35.9948 27.5312C35.3841 27.1087 35.0201 26.521 34.9029 25.7681L36.7832 25.587C36.8684 25.9563 37.0495 26.2351 37.3265 26.4233C37.6035 26.6115 37.964 26.7056 38.4078 26.7056C38.8659 26.7056 39.2335 26.6115 39.5105 26.4233C39.791 26.2351 39.9313 26.0025 39.9313 25.7255C39.9313 25.4911 39.8407 25.2976 39.6596 25.1449C39.4821 24.9922 39.2051 24.875 38.8287 24.7933L37.4331 24.5004C36.6483 24.337 36.0676 24.0618 35.6912 23.6747C35.3148 23.2841 35.1284 22.7905 35.1319 22.1939C35.1284 21.6896 35.2651 21.2528 35.5421 20.8835C35.8226 20.5107 36.2115 20.223 36.7086 20.0206C37.2093 19.8146 37.7864 19.7116 38.4398 19.7116C39.3986 19.7116 40.1532 19.9158 40.7037 20.3242C41.2576 20.7326 41.6003 21.2848 41.7317 21.9808ZM47.5831 19.8182V21.3097H42.8796V19.8182H47.5831ZM44.0408 17.858H45.9691V25.5391C45.9691 25.7983 46.0082 25.9972 46.0863 26.1357C46.168 26.2706 46.2745 26.3629 46.4059 26.4126C46.5373 26.4624 46.6829 26.4872 46.8427 26.4872C46.9634 26.4872 47.0735 26.4783 47.1729 26.4606C47.2759 26.4428 47.354 26.4268 47.4073 26.4126L47.7322 27.9201C47.6293 27.9556 47.4819 27.9947 47.2901 28.0373C47.1019 28.0799 46.8711 28.1048 46.5977 28.1119C46.1147 28.1261 45.6797 28.0533 45.2926 27.8935C44.9055 27.7301 44.5984 27.478 44.3711 27.1371C44.1474 26.7962 44.0373 26.37 44.0408 25.8587V17.858ZM52.6768 28.1598C51.8777 28.1598 51.1853 27.984 50.5993 27.6325C50.0134 27.2809 49.5589 26.7891 49.2357 26.157C48.9161 25.5249 48.7563 24.7862 48.7563 23.9411C48.7563 23.0959 48.9161 22.3555 49.2357 21.7198C49.5589 21.0842 50.0134 20.5906 50.5993 20.239C51.1853 19.8874 51.8777 19.7116 52.6768 19.7116C53.4758 19.7116 54.1682 19.8874 54.7542 20.239C55.3401 20.5906 55.7929 21.0842 56.1125 21.7198C56.4356 22.3555 56.5972 23.0959 56.5972 23.9411C56.5972 24.7862 56.4356 25.5249 56.1125 26.157C55.7929 26.7891 55.3401 27.2809 54.7542 27.6325C54.1682 27.984 53.4758 28.1598 52.6768 28.1598ZM52.6874 26.6151C53.1206 26.6151 53.4829 26.4961 53.7741 26.2582C54.0652 26.0167 54.2819 25.6935 54.4239 25.2887C54.5695 24.8839 54.6423 24.4329 54.6423 23.9357C54.6423 23.435 54.5695 22.9822 54.4239 22.5774C54.2819 22.169 54.0652 21.8441 53.7741 21.6026C53.4829 21.3612 53.1206 21.2404 52.6874 21.2404C52.2435 21.2404 51.8742 21.3612 51.5795 21.6026C51.2883 21.8441 51.0699 22.169 50.9243 22.5774C50.7822 22.9822 50.7112 23.435 50.7112 23.9357C50.7112 24.4329 50.7822 24.8839 50.9243 25.2887C51.0699 25.6935 51.2883 26.0167 51.5795 26.2582C51.8742 26.4961 52.2435 26.6151 52.6874 26.6151ZM58.2338 28V19.8182H60.0769V21.2085H60.1728C60.3432 20.7397 60.6255 20.3739 61.0197 20.1112C61.4139 19.8448 61.8844 19.7116 62.4313 19.7116C62.9853 19.7116 63.4522 19.8466 63.8322 20.1165C64.2157 20.3828 64.4856 20.7468 64.6419 21.2085H64.7271C64.9082 20.7539 65.2136 20.3917 65.6433 20.1218C66.0765 19.8484 66.5897 19.7116 67.1827 19.7116C67.9355 19.7116 68.5499 19.9496 69.0257 20.4254C69.5016 20.9013 69.7395 21.5955 69.7395 22.5082V28H67.8059V22.8065C67.8059 22.2987 67.671 21.9276 67.4011 21.6932C67.1312 21.4553 66.801 21.3363 66.4103 21.3363C65.9451 21.3363 65.5811 21.4819 65.3184 21.7731C65.0591 22.0607 64.9295 22.4354 64.9295 22.897V28H63.0385V22.7266C63.0385 22.304 62.9107 21.9666 62.655 21.7145C62.4029 21.4624 62.0726 21.3363 61.6642 21.3363C61.3872 21.3363 61.1351 21.4073 60.9078 21.5494C60.6806 21.6879 60.4995 21.8849 60.3645 22.1406C60.2296 22.3928 60.1621 22.6875 60.1621 23.0249V28H58.2338ZM75.3179 28.1598C74.4976 28.1598 73.7891 27.9893 73.1926 27.6484C72.5995 27.304 72.1432 26.8175 71.8236 26.1889C71.504 25.5568 71.3442 24.8129 71.3442 23.957C71.3442 23.1154 71.504 22.3768 71.8236 21.7411C72.1467 21.1019 72.5977 20.6048 73.1766 20.2496C73.7554 19.891 74.4355 19.7116 75.2167 19.7116C75.721 19.7116 76.1968 19.7933 76.6443 19.9567C77.0953 20.1165 77.493 20.3651 77.8374 20.7024C78.1855 21.0398 78.4589 21.4695 78.6578 21.9915C78.8566 22.5099 78.9561 23.1278 78.9561 23.8452V24.4364H72.2497V23.1367H77.1077C77.1041 22.7674 77.0242 22.4389 76.868 22.1513C76.7117 21.8601 76.4933 21.631 76.2128 21.4641C75.9358 21.2972 75.6127 21.2138 75.2433 21.2138C74.8492 21.2138 74.5029 21.3097 74.2046 21.5014C73.9063 21.6896 73.6737 21.9382 73.5068 22.2472C73.3435 22.5526 73.26 22.8881 73.2565 23.2539V24.3885C73.2565 24.8643 73.3435 25.2727 73.5175 25.6136C73.6915 25.951 73.9347 26.2102 74.2472 26.3913C74.5597 26.5689 74.9255 26.6577 75.3445 26.6577C75.6251 26.6577 75.879 26.6186 76.1063 26.5405C76.3335 26.4588 76.5306 26.3398 76.6975 26.1836C76.8644 26.0273 76.9905 25.8338 77.0757 25.603L78.8762 25.8054C78.7625 26.2812 78.5459 26.6967 78.2263 27.0518C77.9102 27.4034 77.5054 27.6768 77.0118 27.8722C76.5182 28.0639 75.9536 28.1598 75.3179 28.1598ZM80.5874 28V19.8182H82.457V21.1818H82.5423C82.6914 20.7095 82.9471 20.3455 83.3093 20.0898C83.6751 19.8306 84.0923 19.701 84.5611 19.701C84.6676 19.701 84.7866 19.7063 84.918 19.717C85.0529 19.7241 85.1648 19.7365 85.2535 19.7543V21.5281C85.1719 21.4996 85.0423 21.4748 84.8647 21.4535C84.6907 21.4286 84.522 21.4162 84.3587 21.4162C84.0071 21.4162 83.691 21.4925 83.4105 21.6452C83.1335 21.7944 82.9151 22.0021 82.7553 22.2685C82.5955 22.5348 82.5156 22.842 82.5156 23.19V28H80.5874ZM90.3406 28V17.0909H97.3292V18.7475H92.3168V21.7092H96.8498V23.3658H92.3168V28H90.3406ZM103.747 24.5589V19.8182H105.675V28H103.805V26.5458H103.72C103.535 27.0039 103.232 27.3786 102.809 27.6697C102.39 27.9609 101.873 28.1065 101.259 28.1065C100.723 28.1065 100.249 27.9876 99.8367 27.7496C99.4284 27.5082 99.1088 27.1584 98.8779 26.7003C98.6471 26.2386 98.5317 25.6811 98.5317 25.0277V19.8182H100.46V24.7294C100.46 25.2479 100.602 25.6598 100.886 25.9652C101.17 26.2706 101.543 26.4233 102.005 26.4233C102.289 26.4233 102.564 26.354 102.83 26.2156C103.097 26.0771 103.315 25.8711 103.486 25.5977C103.66 25.3207 103.747 24.9744 103.747 24.5589ZM109.586 17.0909V28H107.658V17.0909H109.586ZM115.713 19.8182V21.3097H110.876V19.8182H115.713ZM112.085 28V19.0458C112.085 18.4954 112.199 18.0373 112.426 17.6715C112.657 17.3058 112.966 17.0323 113.353 16.8512C113.74 16.6701 114.17 16.5795 114.642 16.5795C114.976 16.5795 115.273 16.6062 115.532 16.6594C115.791 16.7127 115.983 16.7607 116.107 16.8033L115.724 18.2947C115.642 18.2699 115.539 18.245 115.415 18.2202C115.29 18.1918 115.152 18.1776 114.999 18.1776C114.641 18.1776 114.387 18.2646 114.237 18.4386C114.092 18.609 114.019 18.854 114.019 19.1737V28H112.085ZM117.223 28V19.8182H119.151V28H117.223ZM118.193 18.657C117.887 18.657 117.624 18.5558 117.404 18.3533C117.184 18.1474 117.074 17.9006 117.074 17.6129C117.074 17.3217 117.184 17.0749 117.404 16.8725C117.624 16.6665 117.887 16.5636 118.193 16.5636C118.502 16.5636 118.764 16.6665 118.981 16.8725C119.201 17.0749 119.311 17.3217 119.311 17.6129C119.311 17.9006 119.201 18.1474 118.981 18.3533C118.764 18.5558 118.502 18.657 118.193 18.657ZM123.062 17.0909V28H121.134V17.0909H123.062ZM125.045 28V19.8182H126.888V21.2085H126.984C127.155 20.7397 127.437 20.3739 127.831 20.1112C128.225 19.8448 128.696 19.7116 129.243 19.7116C129.797 19.7116 130.264 19.8466 130.644 20.1165C131.027 20.3828 131.297 20.7468 131.453 21.2085H131.539C131.72 20.7539 132.025 20.3917 132.455 20.1218C132.888 19.8484 133.401 19.7116 133.994 19.7116C134.747 19.7116 135.361 19.9496 135.837 20.4254C136.313 20.9013 136.551 21.5955 136.551 22.5082V28H134.617V22.8065C134.617 22.2987 134.483 21.9276 134.213 21.6932C133.943 21.4553 133.612 21.3363 133.222 21.3363C132.757 21.3363 132.393 21.4819 132.13 21.7731C131.871 22.0607 131.741 22.4354 131.741 22.897V28H129.85V22.7266C129.85 22.304 129.722 21.9666 129.467 21.7145C129.214 21.4624 128.884 21.3363 128.476 21.3363C128.199 21.3363 127.947 21.4073 127.719 21.5494C127.492 21.6879 127.311 21.8849 127.176 22.1406C127.041 22.3928 126.974 22.6875 126.974 23.0249V28H125.045ZM142.129 28.1598C141.309 28.1598 140.601 27.9893 140.004 27.6484C139.411 27.304 138.955 26.8175 138.635 26.1889C138.316 25.5568 138.156 24.8129 138.156 23.957C138.156 23.1154 138.316 22.3768 138.635 21.7411C138.958 21.1019 139.409 20.6048 139.988 20.2496C140.567 19.891 141.247 19.7116 142.028 19.7116C142.532 19.7116 143.008 19.7933 143.456 19.9567C143.907 20.1165 144.305 20.3651 144.649 20.7024C144.997 21.0398 145.27 21.4695 145.469 21.9915C145.668 22.5099 145.768 23.1278 145.768 23.8452V24.4364H139.061V23.1367H143.919C143.916 22.7674 143.836 22.4389 143.68 22.1513C143.523 21.8601 143.305 21.631 143.024 21.4641C142.747 21.2972 142.424 21.2138 142.055 21.2138C141.661 21.2138 141.314 21.3097 141.016 21.5014C140.718 21.6896 140.485 21.9382 140.318 22.2472C140.155 22.5526 140.072 22.8881 140.068 23.2539V24.3885C140.068 24.8643 140.155 25.2727 140.329 25.6136C140.503 25.951 140.746 26.2102 141.059 26.3913C141.371 26.5689 141.737 26.6577 142.156 26.6577C142.437 26.6577 142.691 26.6186 142.918 26.5405C143.145 26.4588 143.342 26.3398 143.509 26.1836C143.676 26.0273 143.802 25.8338 143.887 25.603L145.688 25.8054C145.574 26.2812 145.357 26.6967 145.038 27.0518C144.722 27.4034 144.317 27.6768 143.823 27.8722C143.33 28.0639 142.765 28.1598 142.129 28.1598ZM149.327 23.206V28H147.399V19.8182H149.242V21.2085H149.338C149.526 20.7504 149.826 20.3864 150.238 20.1165C150.653 19.8466 151.167 19.7116 151.777 19.7116C152.342 19.7116 152.834 19.8324 153.253 20.0739C153.676 20.3153 154.002 20.6651 154.233 21.1232C154.467 21.5813 154.583 22.1371 154.579 22.7905V28H152.651V23.0888C152.651 22.5419 152.509 22.114 152.225 21.805C151.944 21.4961 151.555 21.3416 151.058 21.3416C150.721 21.3416 150.421 21.4162 150.158 21.5653C149.899 21.7109 149.695 21.9222 149.546 22.1992C149.4 22.4762 149.327 22.8118 149.327 23.206ZM160.625 19.8182V21.3097H155.922V19.8182H160.625ZM157.083 17.858H159.011V25.5391C159.011 25.7983 159.05 25.9972 159.128 26.1357C159.21 26.2706 159.316 26.3629 159.448 26.4126C159.579 26.4624 159.725 26.4872 159.885 26.4872C160.005 26.4872 160.115 26.4783 160.215 26.4606C160.318 26.4428 160.396 26.4268 160.449 26.4126L160.774 27.9201C160.671 27.9556 160.524 27.9947 160.332 28.0373C160.144 28.0799 159.913 28.1048 159.64 28.1119C159.157 28.1261 158.722 28.0533 158.335 27.8935C157.948 27.7301 157.64 27.478 157.413 27.1371C157.189 26.7962 157.079 26.37 157.083 25.8587V17.858Z" fill="black"/>
<path d="M15.0001 54.0272C24.5542 58.8053 44.0064 68.3614 45.3822 68.3614C46.758 68.3614 53.5987 68.3614 56.8471 68.3614L84.9362 60.3342L109.013 75.2418H122.77L146.847 58.0408L158.885 62.0543L195.573 87.2826L204.171 83.269L225.381 46" stroke="#3CE856" stroke-width="1.14674" stroke-linecap="round"/>
<path d="M45.3822 68.9349L15.0001 54.6007V116.5H225.955V45.9998L203.959 83.9998L195.573 87.8561L158.885 62.6278L146.847 58.6142L122.77 75.8153H115.891H109.013L84.9362 60.9077L56.8471 68.9349H45.3822Z" fill="url(#paint0_linear_1_156)"/>
<circle cx="15.0011" cy="54" r="2" fill="#3CE856"/>
<circle cx="44.9952" cy="68" r="2" fill="#3CE856"/>
<circle cx="56.9922" cy="68" r="2" fill="#3CE856"/>
<circle cx="83.9864" cy="60" r="2" fill="#3CE856"/>
<circle cx="108.981" cy="75" r="2" fill="#3CE856"/>
<circle cx="122.978" cy="75" r="2" fill="#3CE856"/>
<circle cx="146.973" cy="58" r="2" fill="#3CE856"/>
<circle cx="158.97" cy="62" r="2" fill="#3CE856"/>
<circle cx="195.962" cy="87" r="2" fill="#3CE856"/>
<circle cx="203.961" cy="83" r="2" fill="#3CE856"/>
<circle cx="224.956" cy="47" r="2" fill="#3CE856"/>
<path d="M15.0001 97.7894L31.6243 96.0693L53.9809 85.1753L83.7897 116.137H115.318L151.433 105.243L197.292 108.11L225.381 88.0421" stroke="black" stroke-width="1.14674" stroke-linecap="round"/>
<path d="M31.6243 96.6427L15.0001 98.3628V151H225.955V88.0421L197.292 108.683L174.966 107L150.971 105.5L115.318 116.711H83.4854L53.9809 85.7487L31.6243 96.6427Z" fill="url(#paint1_linear_1_156)"/>
<circle cx="15.0011" cy="98" r="2" fill="black"/>
<circle cx="30.9982" cy="96" r="2" fill="black"/>
<circle cx="53.9933" cy="85" r="2" fill="black"/>
<circle cx="83.9864" cy="116" r="2" fill="black"/>
<circle cx="114.98" cy="116" r="2" fill="black"/>
<circle cx="150.972" cy="105" r="2" fill="black"/>
<circle cx="196.962" cy="108" r="2" fill="black"/>
<circle cx="225.956" cy="87" r="2" fill="black"/>
<line x1="116.729" y1="217" x2="116.729" y2="180" stroke="white" stroke-opacity="0.12" stroke-width="0.5"/>
<line x1="0.00390625" y1="167.75" x2="241.004" y2="167.75" stroke="white" stroke-opacity="0.06" stroke-width="0.5"/>
<circle cx="28" cy="188" r="3" fill="#3CE856"/>
<path d="M35.799 192V184.727H36.8963V191.055H40.1918V192H35.799ZM42.9457 192.121C42.6 192.121 42.2875 192.057 42.0082 191.929C41.7288 191.799 41.5075 191.611 41.3441 191.364C41.1831 191.118 41.1026 190.816 41.1026 190.459C41.1026 190.151 41.1618 189.898 41.2802 189.699C41.3986 189.5 41.5584 189.343 41.7596 189.227C41.9608 189.111 42.1857 189.023 42.4343 188.964C42.6829 188.905 42.9362 188.86 43.1942 188.829C43.521 188.791 43.7861 188.76 43.9897 188.737C44.1933 188.71 44.3413 188.669 44.4336 188.612C44.5259 188.555 44.5721 188.463 44.5721 188.335V188.31C44.5721 188 44.4845 187.76 44.3093 187.589C44.1365 187.419 43.8784 187.334 43.5352 187.334C43.1777 187.334 42.896 187.413 42.69 187.572C42.4864 187.728 42.3455 187.902 42.2674 188.094L41.2695 187.866C41.3879 187.535 41.5607 187.268 41.788 187.064C42.0176 186.858 42.2816 186.709 42.5799 186.616C42.8782 186.522 43.1919 186.474 43.521 186.474C43.7388 186.474 43.9696 186.5 44.2134 186.553C44.4596 186.602 44.6893 186.695 44.9023 186.83C45.1178 186.964 45.2942 187.157 45.4315 187.408C45.5688 187.657 45.6374 187.98 45.6374 188.378V192H44.6005V191.254H44.5579C44.4892 191.392 44.3862 191.527 44.2489 191.659C44.1116 191.792 43.9353 191.902 43.7198 191.989C43.5044 192.077 43.2463 192.121 42.9457 192.121ZM43.1765 191.268C43.4701 191.268 43.721 191.21 43.9293 191.094C44.14 190.978 44.2998 190.827 44.4087 190.64C44.52 190.451 44.5756 190.248 44.5756 190.033V189.33C44.5378 189.367 44.4644 189.403 44.3555 189.436C44.2489 189.467 44.127 189.494 43.9897 189.518C43.8524 189.539 43.7186 189.559 43.5884 189.578C43.4582 189.595 43.3493 189.609 43.2617 189.621C43.0558 189.647 42.8675 189.691 42.6971 189.752C42.529 189.814 42.3941 189.902 42.2923 190.018C42.1928 190.132 42.1431 190.284 42.1431 190.473C42.1431 190.736 42.2402 190.935 42.4343 191.07C42.6284 191.202 42.8758 191.268 43.1765 191.268ZM51.139 187.877L50.1767 188.048C50.1364 187.924 50.0725 187.807 49.9849 187.696C49.8997 187.585 49.7837 187.494 49.6369 187.423C49.4901 187.352 49.3066 187.316 49.0865 187.316C48.7858 187.316 48.5349 187.384 48.3336 187.518C48.1324 187.651 48.0318 187.823 48.0318 188.033C48.0318 188.216 48.0993 188.362 48.2342 188.474C48.3691 188.585 48.5869 188.676 48.8876 188.747L49.7541 188.946C50.256 189.062 50.63 189.241 50.8762 189.482C51.1225 189.724 51.2456 190.037 51.2456 190.423C51.2456 190.75 51.1509 191.041 50.9615 191.297C50.7744 191.55 50.5128 191.749 50.1767 191.893C49.8429 192.038 49.4558 192.11 49.0154 192.11C48.4047 192.11 47.9063 191.98 47.5204 191.719C47.1345 191.457 46.8978 191.084 46.8102 190.601L47.8365 190.445C47.9004 190.712 48.0318 190.915 48.2306 191.052C48.4295 191.187 48.6887 191.254 49.0083 191.254C49.3564 191.254 49.6345 191.182 49.8429 191.038C50.0512 190.891 50.1554 190.712 50.1554 190.501C50.1554 190.331 50.0914 190.188 49.9636 190.072C49.8381 189.956 49.6452 189.868 49.3848 189.809L48.4615 189.607C47.9525 189.491 47.5761 189.306 47.3322 189.053C47.0907 188.799 46.97 188.478 46.97 188.09C46.97 187.768 47.06 187.487 47.2399 187.245C47.4198 187.004 47.6684 186.815 47.9856 186.68C48.3029 186.543 48.6663 186.474 49.0758 186.474C49.6653 186.474 50.1293 186.602 50.4679 186.858C50.8064 187.111 51.0301 187.451 51.139 187.877ZM54.9592 186.545V187.398H51.9798V186.545H54.9592ZM52.7788 185.239H53.8406V190.398C53.8406 190.604 53.8713 190.759 53.9329 190.864C53.9944 190.965 54.0737 191.035 54.1708 191.073C54.2702 191.109 54.378 191.126 54.494 191.126C54.5792 191.126 54.6538 191.121 54.7177 191.109C54.7816 191.097 54.8313 191.087 54.8668 191.08L55.0586 191.957C54.997 191.981 54.9094 192.005 54.7958 192.028C54.6822 192.054 54.5401 192.069 54.3697 192.071C54.0903 192.076 53.8299 192.026 53.5884 191.922C53.3469 191.818 53.1516 191.657 53.0025 191.439C52.8533 191.221 52.7788 190.948 52.7788 190.619V185.239ZM58.8654 184.727H60.1971L62.5124 190.381H62.5977L64.913 184.727H66.2447V192H65.2006V186.737H65.1332L62.9883 191.989H62.1218L59.9769 186.734H59.9094V192H58.8654V184.727ZM70.0524 192.11C69.541 192.11 69.0948 191.993 68.7136 191.759C68.3324 191.524 68.0365 191.196 67.8258 190.775C67.6151 190.353 67.5098 189.861 67.5098 189.298C67.5098 188.732 67.6151 188.237 67.8258 187.813C68.0365 187.389 68.3324 187.06 68.7136 186.826C69.0948 186.592 69.541 186.474 70.0524 186.474C70.5637 186.474 71.01 186.592 71.3912 186.826C71.7723 187.06 72.0682 187.389 72.2789 187.813C72.4896 188.237 72.595 188.732 72.595 189.298C72.595 189.861 72.4896 190.353 72.2789 190.775C72.0682 191.196 71.7723 191.524 71.3912 191.759C71.01 191.993 70.5637 192.11 70.0524 192.11ZM70.0559 191.219C70.3874 191.219 70.662 191.131 70.8798 190.956C71.0976 190.781 71.2586 190.548 71.3627 190.256C71.4693 189.965 71.5225 189.644 71.5225 189.294C71.5225 188.946 71.4693 188.626 71.3627 188.335C71.2586 188.042 71.0976 187.806 70.8798 187.629C70.662 187.451 70.3874 187.362 70.0559 187.362C69.7221 187.362 69.4451 187.451 69.225 187.629C69.0072 187.806 68.845 188.042 68.7385 188.335C68.6343 188.626 68.5822 188.946 68.5822 189.294C68.5822 189.644 68.6343 189.965 68.7385 190.256C68.845 190.548 69.0072 190.781 69.225 190.956C69.4451 191.131 69.7221 191.219 70.0559 191.219ZM74.842 188.761V192H73.7802V186.545H74.7994V187.433H74.8668C74.9923 187.144 75.1888 186.912 75.4563 186.737C75.7262 186.562 76.0659 186.474 76.4755 186.474C76.8472 186.474 77.1727 186.553 77.4521 186.709C77.7314 186.863 77.948 187.092 78.1019 187.398C78.2558 187.703 78.3327 188.081 78.3327 188.531V192H77.271V188.658C77.271 188.263 77.168 187.954 76.962 187.732C76.756 187.507 76.4731 187.394 76.1133 187.394C75.8671 187.394 75.6481 187.447 75.4563 187.554C75.2669 187.661 75.1166 187.817 75.0053 188.023C74.8964 188.226 74.842 188.473 74.842 188.761ZM82.3029 186.545V187.398H79.3235V186.545H82.3029ZM80.1225 185.239H81.1843V190.398C81.1843 190.604 81.2151 190.759 81.2766 190.864C81.3382 190.965 81.4175 191.035 81.5146 191.073C81.614 191.109 81.7217 191.126 81.8377 191.126C81.9229 191.126 81.9975 191.121 82.0614 191.109C82.1254 191.097 82.1751 191.087 82.2106 191.08L82.4023 191.957C82.3408 191.981 82.2532 192.005 82.1396 192.028C82.0259 192.054 81.8839 192.069 81.7134 192.071C81.4341 192.076 81.1737 192.026 80.9322 191.922C80.6907 191.818 80.4954 191.657 80.3462 191.439C80.1971 191.221 80.1225 190.948 80.1225 190.619V185.239ZM84.6564 188.761V192H83.5946V184.727H84.6422V187.433H84.7097C84.8375 187.14 85.0328 186.906 85.2956 186.734C85.5584 186.561 85.9017 186.474 86.3255 186.474C86.6995 186.474 87.0262 186.551 87.3056 186.705C87.5873 186.859 87.8051 187.089 87.959 187.394C88.1152 187.697 88.1934 188.076 88.1934 188.531V192H87.1316V188.658C87.1316 188.258 87.0286 187.948 86.8226 187.728C86.6167 187.505 86.3302 187.394 85.9632 187.394C85.7123 187.394 85.4874 187.447 85.2885 187.554C85.092 187.661 84.937 187.817 84.8233 188.023C84.7121 188.226 84.6564 188.473 84.6564 188.761Z" fill="#3E423E"/>
<path d="M42.9439 209.909V200.818H43.5263V209.909H42.9439ZM44.7656 203.638C44.7277 203.302 44.5715 203.041 44.2969 202.857C44.0223 202.67 43.6766 202.576 43.2599 202.576C42.9616 202.576 42.7036 202.623 42.4858 202.718C42.268 202.81 42.0987 202.938 41.978 203.102C41.8596 203.263 41.8004 203.446 41.8004 203.652C41.8004 203.825 41.8407 203.974 41.9212 204.099C42.004 204.225 42.1117 204.33 42.2443 204.415C42.3793 204.498 42.5237 204.568 42.6776 204.625C42.8314 204.679 42.9794 204.724 43.1214 204.76L43.8317 204.945C44.0637 205.001 44.3016 205.078 44.5455 205.175C44.7893 205.272 45.0154 205.4 45.2237 205.559C45.4321 205.718 45.6001 205.914 45.728 206.148C45.8582 206.383 45.9233 206.663 45.9233 206.99C45.9233 207.402 45.8168 207.768 45.6037 208.087C45.393 208.407 45.0864 208.659 44.6839 208.844C44.2839 209.028 43.7997 209.121 43.2315 209.121C42.687 209.121 42.2159 209.034 41.8182 208.862C41.4205 208.689 41.1091 208.444 40.8842 208.126C40.6593 207.807 40.535 207.428 40.5114 206.99H41.6122C41.6335 207.253 41.7188 207.472 41.8679 207.647C42.0194 207.82 42.2124 207.949 42.4467 208.034C42.6835 208.117 42.9427 208.158 43.2244 208.158C43.5346 208.158 43.8104 208.11 44.0518 208.013C44.2957 207.913 44.4875 207.776 44.6271 207.601C44.7668 207.423 44.8366 207.216 44.8366 206.979C44.8366 206.764 44.7751 206.588 44.652 206.45C44.5313 206.313 44.3667 206.199 44.1584 206.109C43.9524 206.019 43.7192 205.94 43.4588 205.871L42.5994 205.637C42.017 205.478 41.5554 205.245 41.2145 204.938C40.8759 204.63 40.7067 204.223 40.7067 203.716C40.7067 203.297 40.8203 202.931 41.0476 202.619C41.2749 202.306 41.5826 202.063 41.9709 201.891C42.3591 201.715 42.7971 201.628 43.2848 201.628C43.7772 201.628 44.2116 201.714 44.5881 201.887C44.9669 202.06 45.2652 202.298 45.483 202.601C45.7008 202.902 45.8144 203.247 45.8239 203.638H44.7656ZM46.9824 207.58V206.692L50.1252 201.727H50.8248V203.034H50.3809L48.133 206.592V206.649H52.4405V207.58H46.9824ZM50.4306 209V207.31L50.4377 206.905V201.727H51.4782V209H50.4306ZM54.8002 208.006L54.747 208.393C54.7115 208.677 54.6511 208.973 54.5659 209.281C54.483 209.591 54.3966 209.878 54.3066 210.143C54.219 210.409 54.1468 210.619 54.09 210.776H53.3372C53.368 210.629 53.4106 210.43 53.465 210.179C53.5195 209.93 53.5727 209.652 53.6248 209.344C53.6769 209.037 53.716 208.723 53.742 208.403L53.7775 208.006H54.8002ZM58.5538 209.121C57.9927 209.118 57.5133 208.97 57.1156 208.677C56.7179 208.383 56.4136 207.956 56.2029 207.395C55.9922 206.834 55.8869 206.158 55.8869 205.367C55.8869 204.579 55.9922 203.905 56.2029 203.347C56.416 202.788 56.7214 202.362 57.1191 202.068C57.5192 201.775 57.9975 201.628 58.5538 201.628C59.1101 201.628 59.5872 201.776 59.9849 202.072C60.3826 202.365 60.6868 202.791 60.8975 203.35C61.1106 203.906 61.2172 204.579 61.2172 205.367C61.2172 206.16 61.1118 206.837 60.9011 207.398C60.6904 207.957 60.3862 208.384 59.9885 208.68C59.5907 208.974 59.1125 209.121 58.5538 209.121ZM58.5538 208.173C59.0462 208.173 59.4309 207.932 59.7079 207.452C59.9873 206.971 60.127 206.276 60.127 205.367C60.127 204.763 60.063 204.253 59.9352 203.837C59.8097 203.418 59.6286 203.1 59.3919 202.885C59.1575 202.667 58.8781 202.558 58.5538 202.558C58.0637 202.558 57.679 202.8 57.3997 203.283C57.1203 203.766 56.9795 204.46 56.9771 205.367C56.9771 205.973 57.0398 206.486 57.1653 206.905C57.2931 207.321 57.4743 207.638 57.7086 207.853C57.943 208.066 58.2247 208.173 58.5538 208.173ZM64.9343 209.099C64.4253 209.099 63.9755 209.012 63.5849 208.837C63.1966 208.661 62.8924 208.42 62.6722 208.112C62.4521 207.804 62.3432 207.454 62.3455 207.061C62.3432 206.753 62.4059 206.47 62.5337 206.212C62.6639 205.952 62.8403 205.735 63.0629 205.562C63.2854 205.387 63.534 205.276 63.8086 205.229V205.186C63.4464 205.098 63.1564 204.904 62.9386 204.604C62.7208 204.303 62.613 203.957 62.6154 203.567C62.613 203.195 62.7113 202.864 62.9102 202.572C63.1114 202.279 63.3872 202.048 63.7376 201.88C64.0879 201.712 64.4869 201.628 64.9343 201.628C65.377 201.628 65.7724 201.713 66.1204 201.884C66.4708 202.052 66.7466 202.282 66.9478 202.576C67.149 202.867 67.2508 203.197 67.2532 203.567C67.2508 203.957 67.1396 204.303 66.9194 204.604C66.6992 204.904 66.4128 205.098 66.06 205.186V205.229C66.3323 205.276 66.5773 205.387 66.7951 205.562C67.0153 205.735 67.1905 205.952 67.3207 206.212C67.4532 206.47 67.5207 206.753 67.5231 207.061C67.5207 207.454 67.4094 207.804 67.1893 208.112C66.9691 208.42 66.6637 208.661 66.2731 208.837C65.8848 209.012 65.4386 209.099 64.9343 209.099ZM64.9343 208.201C65.235 208.201 65.4954 208.151 65.7156 208.052C65.9357 207.95 66.1062 207.809 66.2269 207.629C66.3477 207.447 66.4092 207.234 66.4116 206.99C66.4092 206.737 66.3429 206.513 66.2127 206.319C66.0849 206.125 65.9109 205.972 65.6907 205.861C65.4705 205.75 65.2184 205.694 64.9343 205.694C64.6478 205.694 64.3933 205.75 64.1708 205.861C63.9483 205.972 63.7731 206.125 63.6452 206.319C63.5174 206.513 63.4547 206.737 63.457 206.99C63.4547 207.234 63.5127 207.447 63.631 207.629C63.7518 207.809 63.9234 207.95 64.146 208.052C64.3685 208.151 64.6313 208.201 64.9343 208.201ZM64.9343 204.817C65.1758 204.817 65.39 204.768 65.5771 204.671C65.7641 204.574 65.9109 204.439 66.0174 204.266C66.1263 204.094 66.1819 203.891 66.1843 203.659C66.1819 203.432 66.1275 203.233 66.021 203.062C65.9168 202.892 65.7712 202.761 65.5842 202.668C65.3971 202.574 65.1805 202.526 64.9343 202.526C64.6834 202.526 64.4632 202.574 64.2738 202.668C64.0868 202.761 63.9412 202.892 63.837 203.062C63.7328 203.233 63.6819 203.432 63.6843 203.659C63.6819 203.891 63.734 204.094 63.8406 204.266C63.9471 204.439 64.0939 204.574 64.2809 204.671C64.4703 204.768 64.6881 204.817 64.9343 204.817ZM69.0403 209L72.215 202.722V202.668H68.5431V201.727H73.3514V202.7L70.1873 209H69.0403Z" fill="black"/>
<circle cx="148" cy="188" r="3" fill="black"/>
<path d="M155.44 185.672V184.727H161.069V185.672H158.8V192H157.706V185.672H155.44ZM163.289 188.761V192H162.227V184.727H163.275V187.433H163.343C163.47 187.14 163.666 186.906 163.928 186.734C164.191 186.561 164.535 186.474 164.958 186.474C165.332 186.474 165.659 186.551 165.938 186.705C166.22 186.859 166.438 187.089 166.592 187.394C166.748 187.697 166.826 188.076 166.826 188.531V192H165.764V188.658C165.764 188.258 165.661 187.948 165.455 187.728C165.249 187.505 164.963 187.394 164.596 187.394C164.345 187.394 164.12 187.447 163.921 187.554C163.725 187.661 163.57 187.817 163.456 188.023C163.345 188.226 163.289 188.473 163.289 188.761ZM168.243 192V186.545H169.305V192H168.243ZM168.779 185.704C168.595 185.704 168.436 185.642 168.303 185.519C168.173 185.394 168.108 185.245 168.108 185.072C168.108 184.897 168.173 184.747 168.303 184.624C168.436 184.499 168.595 184.436 168.779 184.436C168.964 184.436 169.121 184.499 169.252 184.624C169.384 184.747 169.45 184.897 169.45 185.072C169.45 185.245 169.384 185.394 169.252 185.519C169.121 185.642 168.964 185.704 168.779 185.704ZM174.821 187.877L173.858 188.048C173.818 187.924 173.754 187.807 173.667 187.696C173.581 187.585 173.465 187.494 173.319 187.423C173.172 187.352 172.988 187.316 172.768 187.316C172.467 187.316 172.217 187.384 172.015 187.518C171.814 187.651 171.713 187.823 171.713 188.033C171.713 188.216 171.781 188.362 171.916 188.474C172.051 188.585 172.269 188.676 172.569 188.747L173.436 188.946C173.938 189.062 174.312 189.241 174.558 189.482C174.804 189.724 174.927 190.037 174.927 190.423C174.927 190.75 174.833 191.041 174.643 191.297C174.456 191.55 174.194 191.749 173.858 191.893C173.525 192.038 173.137 192.11 172.697 192.11C172.086 192.11 171.588 191.98 171.202 191.719C170.816 191.457 170.579 191.084 170.492 190.601L171.518 190.445C171.582 190.712 171.713 190.915 171.912 191.052C172.111 191.187 172.37 191.254 172.69 191.254C173.038 191.254 173.316 191.182 173.525 191.038C173.733 190.891 173.837 190.712 173.837 190.501C173.837 190.331 173.773 190.188 173.645 190.072C173.52 189.956 173.327 189.868 173.066 189.809L172.143 189.607C171.634 189.491 171.258 189.306 171.014 189.053C170.772 188.799 170.652 188.478 170.652 188.09C170.652 187.768 170.742 187.487 170.922 187.245C171.101 187.004 171.35 186.815 171.667 186.68C171.984 186.543 172.348 186.474 172.757 186.474C173.347 186.474 173.811 186.602 174.15 186.858C174.488 187.111 174.712 187.451 174.821 187.877ZM178.826 184.727H180.158L182.473 190.381H182.559L184.874 184.727H186.206V192H185.162V186.737H185.094L182.949 191.989H182.083L179.938 186.734H179.87V192H178.826V184.727ZM190.013 192.11C189.502 192.11 189.056 191.993 188.675 191.759C188.293 191.524 187.997 191.196 187.787 190.775C187.576 190.353 187.471 189.861 187.471 189.298C187.471 188.732 187.576 188.237 187.787 187.813C187.997 187.389 188.293 187.06 188.675 186.826C189.056 186.592 189.502 186.474 190.013 186.474C190.525 186.474 190.971 186.592 191.352 186.826C191.733 187.06 192.029 187.389 192.24 187.813C192.451 188.237 192.556 188.732 192.556 189.298C192.556 189.861 192.451 190.353 192.24 190.775C192.029 191.196 191.733 191.524 191.352 191.759C190.971 191.993 190.525 192.11 190.013 192.11ZM190.017 191.219C190.348 191.219 190.623 191.131 190.841 190.956C191.059 190.781 191.22 190.548 191.324 190.256C191.43 189.965 191.483 189.644 191.483 189.294C191.483 188.946 191.43 188.626 191.324 188.335C191.22 188.042 191.059 187.806 190.841 187.629C190.623 187.451 190.348 187.362 190.017 187.362C189.683 187.362 189.406 187.451 189.186 187.629C188.968 187.806 188.806 188.042 188.699 188.335C188.595 188.626 188.543 188.946 188.543 189.294C188.543 189.644 188.595 189.965 188.699 190.256C188.806 190.548 188.968 190.781 189.186 190.956C189.406 191.131 189.683 191.219 190.017 191.219ZM194.803 188.761V192H193.741V186.545H194.76V187.433H194.828C194.953 187.144 195.15 186.912 195.417 186.737C195.687 186.562 196.027 186.474 196.436 186.474C196.808 186.474 197.134 186.553 197.413 186.709C197.692 186.863 197.909 187.092 198.063 187.398C198.217 187.703 198.294 188.081 198.294 188.531V192H197.232V188.658C197.232 188.263 197.129 187.954 196.923 187.732C196.717 187.507 196.434 187.394 196.074 187.394C195.828 187.394 195.609 187.447 195.417 187.554C195.228 187.661 195.078 187.817 194.966 188.023C194.857 188.226 194.803 188.473 194.803 188.761ZM202.264 186.545V187.398H199.284V186.545H202.264ZM200.083 185.239H201.145V190.398C201.145 190.604 201.176 190.759 201.238 190.864C201.299 190.965 201.378 191.035 201.475 191.073C201.575 191.109 201.683 191.126 201.799 191.126C201.884 191.126 201.958 191.121 202.022 191.109C202.086 191.097 202.136 191.087 202.172 191.08L202.363 191.957C202.302 191.981 202.214 192.005 202.1 192.028C201.987 192.054 201.845 192.069 201.674 192.071C201.395 192.076 201.135 192.026 200.893 191.922C200.652 191.818 200.456 191.657 200.307 191.439C200.158 191.221 200.083 190.948 200.083 190.619V185.239ZM204.617 188.761V192H203.556V184.727H204.603V187.433H204.671C204.798 187.14 204.994 186.906 205.257 186.734C205.519 186.561 205.863 186.474 206.286 186.474C206.66 186.474 206.987 186.551 207.267 186.705C207.548 186.859 207.766 187.089 207.92 187.394C208.076 187.697 208.154 188.076 208.154 188.531V192H207.093V188.658C207.093 188.258 206.99 187.948 206.784 187.728C206.578 187.505 206.291 187.394 205.924 187.394C205.673 187.394 205.448 187.447 205.249 187.554C205.053 187.661 204.898 187.817 204.784 188.023C204.673 188.226 204.617 188.473 204.617 188.761Z" fill="#3E423E"/>
<path d="M162.444 209.909V200.818H163.026V209.909H162.444ZM164.266 203.638C164.228 203.302 164.071 203.041 163.797 202.857C163.522 202.67 163.177 202.576 162.76 202.576C162.462 202.576 162.204 202.623 161.986 202.718C161.768 202.81 161.599 202.938 161.478 203.102C161.36 203.263 161.3 203.446 161.3 203.652C161.3 203.825 161.341 203.974 161.421 204.099C161.504 204.225 161.612 204.33 161.744 204.415C161.879 204.498 162.024 204.568 162.178 204.625C162.331 204.679 162.479 204.724 162.621 204.76L163.332 204.945C163.564 205.001 163.802 205.078 164.045 205.175C164.289 205.272 164.515 205.4 164.724 205.559C164.932 205.718 165.1 205.914 165.228 206.148C165.358 206.383 165.423 206.663 165.423 206.99C165.423 207.402 165.317 207.768 165.104 208.087C164.893 208.407 164.586 208.659 164.184 208.844C163.784 209.028 163.3 209.121 162.732 209.121C162.187 209.121 161.716 209.034 161.318 208.862C160.92 208.689 160.609 208.444 160.384 208.126C160.159 207.807 160.035 207.428 160.011 206.99H161.112C161.134 207.253 161.219 207.472 161.368 207.647C161.519 207.82 161.712 207.949 161.947 208.034C162.183 208.117 162.443 208.158 162.724 208.158C163.035 208.158 163.31 208.11 163.552 208.013C163.796 207.913 163.987 207.776 164.127 207.601C164.267 207.423 164.337 207.216 164.337 206.979C164.337 206.764 164.275 206.588 164.152 206.45C164.031 206.313 163.867 206.199 163.658 206.109C163.452 206.019 163.219 205.94 162.959 205.871L162.099 205.637C161.517 205.478 161.055 205.245 160.714 204.938C160.376 204.63 160.207 204.223 160.207 203.716C160.207 203.297 160.32 202.931 160.548 202.619C160.775 202.306 161.083 202.063 161.471 201.891C161.859 201.715 162.297 201.628 162.785 201.628C163.277 201.628 163.712 201.714 164.088 201.887C164.467 202.06 164.765 202.298 164.983 202.601C165.201 202.902 165.314 203.247 165.324 203.638H164.266ZM169.036 209.099C168.591 209.099 168.191 209.014 167.835 208.844C167.483 208.671 167.201 208.434 166.99 208.134C166.78 207.833 166.667 207.49 166.653 207.104H167.718C167.744 207.416 167.883 207.673 168.134 207.874C168.385 208.076 168.685 208.176 169.036 208.176C169.315 208.176 169.562 208.112 169.778 207.984C169.996 207.854 170.166 207.675 170.289 207.448C170.415 207.221 170.477 206.962 170.477 206.67C170.477 206.375 170.414 206.111 170.286 205.879C170.158 205.647 169.981 205.464 169.757 205.332C169.534 205.199 169.278 205.132 168.99 205.129C168.769 205.129 168.548 205.167 168.325 205.243C168.103 205.319 167.923 205.418 167.786 205.541L166.781 205.392L167.189 201.727H171.188V202.668H168.102L167.871 204.703H167.914C168.056 204.566 168.244 204.451 168.478 204.359C168.715 204.266 168.968 204.22 169.238 204.22C169.681 204.22 170.075 204.326 170.421 204.536C170.769 204.747 171.042 205.035 171.241 205.399C171.442 205.761 171.542 206.178 171.539 206.649C171.542 207.12 171.435 207.54 171.22 207.91C171.007 208.279 170.711 208.57 170.332 208.783C169.955 208.994 169.523 209.099 169.036 209.099ZM173.968 208.006L173.915 208.393C173.879 208.677 173.819 208.973 173.734 209.281C173.651 209.591 173.565 209.878 173.475 210.143C173.387 210.409 173.315 210.619 173.258 210.776H172.505C172.536 210.629 172.579 210.43 172.633 210.179C172.687 209.93 172.741 209.652 172.793 209.344C172.845 209.037 172.884 208.723 172.91 208.403L172.945 208.006H173.968ZM177.737 209.099C177.292 209.099 176.892 209.014 176.537 208.844C176.184 208.671 175.902 208.434 175.691 208.134C175.481 207.833 175.368 207.49 175.354 207.104H176.419C176.445 207.416 176.584 207.673 176.835 207.874C177.086 208.076 177.386 208.176 177.737 208.176C178.016 208.176 178.264 208.112 178.479 207.984C178.697 207.854 178.867 207.675 178.99 207.448C179.116 207.221 179.179 206.962 179.179 206.67C179.179 206.375 179.115 206.111 178.987 205.879C178.859 205.647 178.683 205.464 178.458 205.332C178.235 205.199 177.98 205.132 177.691 205.129C177.471 205.129 177.249 205.167 177.027 205.243C176.804 205.319 176.624 205.418 176.487 205.541L175.482 205.392L175.89 201.727H179.889V202.668H176.803L176.572 204.703H176.615C176.757 204.566 176.945 204.451 177.179 204.359C177.416 204.266 177.669 204.22 177.939 204.22C178.382 204.22 178.776 204.326 179.122 204.536C179.47 204.747 179.743 205.035 179.942 205.399C180.143 205.761 180.243 206.178 180.24 206.649C180.243 207.12 180.136 207.54 179.921 207.91C179.708 208.279 179.412 208.57 179.033 208.783C178.657 208.994 178.225 209.099 177.737 209.099ZM184.069 209.121C183.508 209.118 183.029 208.97 182.631 208.677C182.233 208.383 181.929 207.956 181.719 207.395C181.508 206.834 181.403 206.158 181.403 205.367C181.403 204.579 181.508 203.905 181.719 203.347C181.932 202.788 182.237 202.362 182.635 202.068C183.035 201.775 183.513 201.628 184.069 201.628C184.626 201.628 185.103 201.776 185.501 202.072C185.898 202.365 186.202 202.791 186.413 203.35C186.626 203.906 186.733 204.579 186.733 205.367C186.733 206.16 186.627 206.837 186.417 207.398C186.206 207.957 185.902 208.384 185.504 208.68C185.106 208.974 184.628 209.121 184.069 209.121ZM184.069 208.173C184.562 208.173 184.947 207.932 185.224 207.452C185.503 206.971 185.643 206.276 185.643 205.367C185.643 204.763 185.579 204.253 185.451 203.837C185.325 203.418 185.144 203.1 184.907 202.885C184.673 202.667 184.394 202.558 184.069 202.558C183.579 202.558 183.195 202.8 182.915 203.283C182.636 203.766 182.495 204.46 182.493 205.367C182.493 205.973 182.555 206.486 182.681 206.905C182.809 207.321 182.99 207.638 183.224 207.853C183.459 208.066 183.74 208.173 184.069 208.173ZM190.532 209.099C190.207 209.095 189.888 209.036 189.573 208.922C189.26 208.808 188.976 208.619 188.721 208.354C188.465 208.089 188.26 207.732 188.106 207.285C187.955 206.837 187.879 206.279 187.879 205.609C187.879 204.974 187.942 204.411 188.067 203.918C188.195 203.426 188.378 203.01 188.618 202.672C188.857 202.331 189.145 202.072 189.484 201.894C189.823 201.717 190.203 201.628 190.624 201.628C191.057 201.628 191.442 201.713 191.778 201.884C192.114 202.054 192.386 202.29 192.595 202.59C192.806 202.891 192.939 203.233 192.996 203.616H191.913C191.84 203.313 191.694 203.066 191.476 202.874C191.258 202.683 190.974 202.587 190.624 202.587C190.091 202.587 189.676 202.819 189.377 203.283C189.082 203.747 188.932 204.392 188.93 205.218H188.983C189.109 205.012 189.263 204.837 189.445 204.692C189.63 204.546 189.836 204.433 190.063 204.355C190.292 204.275 190.534 204.234 190.787 204.234C191.209 204.234 191.59 204.337 191.931 204.543C192.274 204.747 192.547 205.029 192.751 205.388C192.955 205.748 193.056 206.16 193.056 206.624C193.056 207.088 192.951 207.509 192.74 207.885C192.532 208.261 192.239 208.56 191.86 208.78C191.481 208.998 191.038 209.104 190.532 209.099ZM190.528 208.176C190.807 208.176 191.057 208.107 191.277 207.97C191.498 207.833 191.672 207.648 191.799 207.416C191.927 207.184 191.991 206.925 191.991 206.638C191.991 206.359 191.928 206.105 191.803 205.875C191.68 205.645 191.509 205.463 191.292 205.328C191.076 205.193 190.83 205.126 190.553 205.126C190.342 205.126 190.147 205.166 189.967 205.246C189.789 205.327 189.633 205.438 189.498 205.58C189.363 205.722 189.257 205.886 189.179 206.07C189.103 206.253 189.065 206.446 189.065 206.649C189.065 206.921 189.128 207.174 189.253 207.406C189.381 207.638 189.555 207.825 189.775 207.967C189.998 208.106 190.249 208.176 190.528 208.176Z" fill="black"/>
<defs>
<linearGradient id="paint0_linear_1_156" x1="118.478" y1="41.1182" x2="119.954" y2="123.443" gradientUnits="userSpaceOnUse">
<stop stop-color="#3CE856"/>
<stop offset="1" stop-color="#1D1E26" stop-opacity="0"/>
</linearGradient>
<linearGradient id="paint1_linear_1_156" x1="118.978" y1="82.1054" x2="119.469" y2="151.496" gradientUnits="userSpaceOnUse">
<stop stop-color="#272E25"/>
<stop offset="1" stop-color="#1D1E26" stop-opacity="0"/>
</linearGradient>
</defs>
</svg>
